<svg width="183" height="44" viewBox="0 0 183 44" fill="none" xmlns="http://www.w3.org/2000/svg">
<path d="M2 11.721C2 11.1144 2.23701 10.5318 2.66047 10.0975L6.22222 6.44444L10.1003 2.66097C10.5346 2.2372 11.1175 2 11.7243 2H32.2757C32.8825 2 33.4654 2.2372 33.8997 2.66097L37.7778 6.44444L41.3395 10.0975C41.763 10.5318 42 11.1144 42 11.721V32.2757C42 32.8825 41.7628 33.4654 41.339 33.8997L37.5556 37.7778L33.9025 41.3395C33.4682 41.763 32.8856 42 32.279 42H11.721C11.1144 42 10.5318 41.763 10.0975 41.3395L6.44444 37.7778L2.66097 33.8997C2.2372 33.4654 2 32.8825 2 32.2757V11.721Z" fill="white"/>
<path d="M15.0233 9.90698H33.6279L28.9767 14.5581H10.3721L15.0233 9.90698Z" fill="white"/>
<path d="M35.7561 14.3655C35.8278 14.5437 35.7825 14.7478 35.6421 14.879L31.1163 19.1062C30.8775 19.3292 30.4893 19.243 30.3673 18.9399L28.8783 15.2391C28.8066 15.0608 28.8519 14.8568 28.9924 14.7256L33.5181 10.4983C33.7569 10.2753 34.1451 10.3615 34.2671 10.6646L35.7561 14.3655Z" fill="white"/>
<path d="M15.4267 29.1209C15.4984 29.2992 15.4531 29.5032 15.3127 29.6344L10.7869 33.8617C10.5482 34.0847 10.1599 33.9985 10.0379 33.6954L8.54894 29.9945C8.47721 29.8163 8.52251 29.6122 8.66296 29.481L13.1887 25.2538C13.4275 25.0307 13.8157 25.1169 13.9377 25.4201L15.4267 29.1209Z" fill="white"/>
<path d="M15.0233 29.4419H33.6279L28.9767 34.093H10.3721L15.0233 29.4419Z" fill="white"/>
<path d="M28.9767 14.5581H10.3721L15.0233 29.4419H33.6279L28.9767 14.5581Z" fill="white"/>
<path d="M28.9767 14.5581L33.6279 9.90698H15.0233L10.3721 14.5581M28.9767 14.5581H10.3721M28.9767 14.5581L33.6279 29.4419M10.3721 14.5581L15.0233 29.4419M15.0233 29.4419H33.6279M15.0233 29.4419L10.3721 34.093H28.9767L33.6279 29.4419M6.22222 6.44444L2.66047 10.0975C2.23701 10.5318 2 11.1144 2 11.721V32.2757C2 32.8825 2.2372 33.4654 2.66097 33.8997L6.44444 37.7778L10.0975 41.3395C10.5318 41.763 11.1144 42 11.721 42H32.279C32.8856 42 33.4682 41.763 33.9025 41.3395L37.5556 37.7778L41.339 33.8997C41.7628 33.4654 42 32.8825 42 32.2757V11.721C42 11.1144 41.763 10.5318 41.3395 10.0975L37.7778 6.44444L33.8997 2.66097C33.4654 2.2372 32.8825 2 32.2757 2H11.7243C11.1175 2 10.5346 2.2372 10.1003 2.66097L6.22222 6.44444ZM35.7561 14.3655C35.8278 14.5437 35.7825 14.7478 35.6421 14.879L31.1163 19.1062C30.8775 19.3292 30.4893 19.243 30.3673 18.9399L28.8783 15.2391C28.8066 15.0608 28.8519 14.8568 28.9924 14.7256L33.5181 10.4983C33.7569 10.2753 34.1451 10.3615 34.2671 10.6646L35.7561 14.3655ZM15.4267 29.1209C15.4984 29.2992 15.4531 29.5032 15.3127 29.6344L10.7869 33.8617C10.5482 34.0847 10.1599 33.9985 10.0379 33.6954L8.54894 29.9945C8.47721 29.8163 8.52251 29.6122 8.66296 29.481L13.1887 25.2538C13.4275 25.0307 13.8157 25.1169 13.9377 25.4201L15.4267 29.1209Z" stroke="black" stroke-width="3" stroke-linejoin="round"/>
<path d="M58.6013 15.52C58.6013 15.94 58.8113 16.27 59.2313 16.51C59.6713 16.75 60.3513 17.01 61.2713 17.29C62.3713 17.65 63.2713 18 63.9713 18.34C64.6913 18.68 65.3113 19.21 65.8313 19.93C66.3713 20.65 66.6413 21.59 66.6413 22.75C66.6413 26.47 64.2213 28.33 59.3813 28.33C58.5813 28.33 57.6013 28.26 56.4413 28.12C55.3013 27.98 54.2613 27.8 53.3213 27.58C53.3613 27.16 53.4413 26.55 53.5613 25.75C53.7013 24.93 53.8313 24.32 53.9513 23.92C54.6513 24.02 55.7013 24.14 57.1013 24.28C58.5213 24.42 59.5913 24.49 60.3113 24.49C60.7313 24.49 60.9813 24.46 61.0613 24.4C61.1813 24.32 61.2713 24.19 61.3313 24.01C61.4113 23.81 61.4513 23.64 61.4513 23.5C61.4513 23.1 61.2613 22.8 60.8813 22.6C60.5013 22.38 59.8513 22.12 58.9313 21.82C57.8313 21.48 56.9213 21.13 56.2013 20.77C55.4813 20.41 54.8513 19.85 54.3113 19.09C53.7713 18.33 53.5013 17.33 53.5013 16.09C53.5013 15.21 53.7013 14.35 54.1013 13.51C54.5013 12.65 54.9113 12.07 55.3313 11.77C55.6513 11.55 56.3113 11.34 57.3113 11.14C58.3113 10.94 59.2513 10.84 60.1313 10.84C62.3713 10.84 64.2013 11.05 65.6213 11.47C65.6013 11.87 65.5313 12.42 65.4113 13.12C65.3113 13.82 65.2013 14.46 65.0813 15.04L64.3913 15.01C61.7913 14.83 60.1313 14.74 59.4113 14.74C59.1113 14.74 58.9413 14.75 58.9013 14.77C58.8213 14.81 58.7513 14.9 58.6913 15.04C58.6313 15.18 58.6013 15.34 58.6013 15.52ZM80.1607 28.39C77.1807 28.39 74.9407 27.69 73.4407 26.29C71.9607 24.87 71.2207 22.6 71.2207 19.48C71.2207 16.42 72.0407 14.19 73.6807 12.79C75.3207 11.39 77.4907 10.69 80.1907 10.69C85.8707 10.69 88.7107 13.52 88.7107 19.18C88.7107 22.04 88.0107 24.29 86.6107 25.93C85.2307 27.57 83.0807 28.39 80.1607 28.39ZM80.0407 24.85C80.6007 24.85 81.0707 24.76 81.4507 24.58C81.8307 24.38 82.1307 24.04 82.3507 23.56C82.7707 22.74 82.9807 21.4 82.9807 19.54C82.9807 17.72 82.7707 16.4 82.3507 15.58C81.9307 14.74 81.1607 14.3 80.0407 14.26C79.6207 14.26 79.1807 14.31 78.7207 14.41C78.2807 14.49 78.0007 14.61 77.8807 14.77C77.6407 15.05 77.4507 15.65 77.3107 16.57C77.1907 17.47 77.1307 18.46 77.1307 19.54C77.1307 21.22 77.2907 22.45 77.6107 23.23C77.8307 23.81 78.1407 24.23 78.5407 24.49C78.9407 24.73 79.4407 24.85 80.0407 24.85ZM93.738 10.9H106.008V14.62H99.1381V18.01H104.808V21.28H99.1381V28H93.738V10.9ZM119.501 28H114.101V14.65H109.271V10.9H124.331V14.65H119.501V28ZM133.679 15.52C133.679 15.94 133.889 16.27 134.309 16.51C134.749 16.75 135.429 17.01 136.349 17.29C137.449 17.65 138.349 18 139.049 18.34C139.769 18.68 140.389 19.21 140.909 19.93C141.449 20.65 141.719 21.59 141.719 22.75C141.719 26.47 139.299 28.33 134.459 28.33C133.659 28.33 132.679 28.26 131.519 28.12C130.379 27.98 129.339 27.8 128.399 27.58C128.439 27.16 128.519 26.55 128.639 25.75C128.779 24.93 128.909 24.32 129.029 23.92C129.729 24.02 130.779 24.14 132.179 24.28C133.599 24.42 134.669 24.49 135.389 24.49C135.809 24.49 136.059 24.46 136.139 24.4C136.259 24.32 136.349 24.19 136.409 24.01C136.489 23.81 136.529 23.64 136.529 23.5C136.529 23.1 136.339 22.8 135.959 22.6C135.579 22.38 134.929 22.12 134.009 21.82C132.909 21.48 131.999 21.13 131.279 20.77C130.559 20.41 129.929 19.85 129.389 19.09C128.849 18.33 128.579 17.33 128.579 16.09C128.579 15.21 128.779 14.35 129.179 13.51C129.579 12.65 129.989 12.07 130.409 11.77C130.729 11.55 131.389 11.34 132.389 11.14C133.389 10.94 134.329 10.84 135.209 10.84C137.449 10.84 139.279 11.05 140.699 11.47C140.679 11.87 140.609 12.42 140.489 13.12C140.389 13.82 140.279 14.46 140.159 15.04L139.469 15.01C136.869 14.83 135.209 14.74 134.489 14.74C134.189 14.74 134.019 14.75 133.979 14.77C133.899 14.81 133.829 14.9 133.769 15.04C133.709 15.18 133.679 15.34 133.679 15.52ZM162.858 28H156.948L153.618 21.61C153.558 21.51 153.398 21.23 153.138 20.77C152.898 20.31 152.628 19.87 152.328 19.45V28H146.928V10.9H152.328V18.67C152.668 18.29 152.958 17.88 153.198 17.44C153.458 16.98 153.608 16.71 153.648 16.63L156.858 10.9H162.558L159.138 16.63C159.078 16.71 158.948 16.92 158.748 17.26C158.548 17.6 158.328 17.92 158.088 18.22C157.868 18.5 157.628 18.76 157.368 19C157.728 19.34 158.018 19.68 158.238 20.02C158.478 20.34 158.748 20.77 159.048 21.31L162.858 28ZM176.333 22.54V28H170.933V22.6L165.173 10.9H170.663L172.943 16.45C173.183 17.01 173.403 17.6 173.603 18.22H173.663C173.883 17.54 174.103 16.93 174.323 16.39L176.573 10.9H182.033L176.333 22.54Z" fill="black"/>
</svg>
