<svg width="129" height="26" viewBox="0 0 129 26" fill="none" xmlns="http://www.w3.org/2000/svg">
<path d="M1 6.83261C1 6.46866 1.1422 6.11911 1.39628 5.85852L3.53333 3.66667L5.86017 1.39658C6.12079 1.14232 6.47047 1 6.83457 1H19.1654C19.5295 1 19.8792 1.14232 20.1398 1.39658L22.4667 3.66667L24.6037 5.85852C24.8578 6.11911 25 6.46866 25 6.83261V19.1654C25 19.5295 24.8577 19.8792 24.6034 20.1398L22.3333 22.4667L20.1415 24.6037C19.8809 24.8578 19.5313 25 19.1674 25H6.83261C6.46866 25 6.11911 24.8578 5.85852 24.6037L3.66667 22.4667L1.39658 20.1398C1.14232 19.8792 1 19.5295 1 19.1654V6.83261Z" fill="white"/>
<path d="M8.81395 5.74419H19.9767L17.186 8.53488H6.02326L8.81395 5.74419Z" fill="white"/>
<path d="M21.2536 8.41927C21.2967 8.52624 21.2695 8.64867 21.1852 8.72738L18.4698 11.2637C18.3265 11.3975 18.0936 11.3458 18.0204 11.164L17.127 8.94346C17.084 8.83648 17.1111 8.71406 17.1954 8.63535L19.9109 6.09899C20.0541 5.96518 20.2871 6.0169 20.3602 6.19877L21.2536 8.41927Z" fill="white"/>
<path d="M9.056 17.2725C9.09904 17.3795 9.07186 17.5019 8.98759 17.5806L6.27215 20.117C6.12889 20.2508 5.89593 20.1991 5.82276 20.0172L4.92937 17.7967C4.88633 17.6898 4.91351 17.5673 4.99777 17.4886L7.71321 14.9523C7.85648 14.8184 8.08943 14.8702 8.16261 15.052L9.056 17.2725Z" fill="white"/>
<path d="M8.81395 17.4651H19.9767L17.186 20.2558H6.02326L8.81395 17.4651Z" fill="white"/>
<path d="M17.186 8.53488H6.02326L8.81395 17.4651H19.9767L17.186 8.53488Z" fill="white"/>
<path d="M17.186 8.53488L19.9767 5.74419H8.81395L6.02326 8.53488M17.186 8.53488H6.02326M17.186 8.53488L19.9767 17.4651M6.02326 8.53488L8.81395 17.4651M8.81395 17.4651H19.9767M8.81395 17.4651L6.02326 20.2558H17.186L19.9767 17.4651M3.53333 3.66667L1.39628 5.85852C1.1422 6.11911 1 6.46866 1 6.83261V19.1654C1 19.5295 1.14232 19.8792 1.39658 20.1398L3.66667 22.4667L5.85852 24.6037C6.11911 24.8578 6.46866 25 6.83261 25H19.1674C19.5313 25 19.8809 24.8578 20.1415 24.6037L22.3333 22.4667L24.6034 20.1398C24.8577 19.8792 25 19.5295 25 19.1654V6.83261C25 6.46866 24.8578 6.11911 24.6037 5.85852L22.4667 3.66667L20.1398 1.39658C19.8792 1.14232 19.5295 1 19.1654 1H6.83457C6.47047 1 6.12079 1.14232 5.86017 1.39658L3.53333 3.66667ZM21.2536 8.41927C21.2967 8.52624 21.2695 8.64867 21.1852 8.72738L18.4698 11.2637C18.3265 11.3975 18.0936 11.3458 18.0204 11.164L17.127 8.94346C17.084 8.83648 17.1111 8.71406 17.1954 8.63535L19.9109 6.09899C20.0541 5.96518 20.2871 6.0169 20.3602 6.19877L21.2536 8.41927ZM9.056 17.2725C9.09904 17.3795 9.07186 17.5019 8.98759 17.5806L6.27215 20.117C6.12889 20.2508 5.89593 20.1991 5.82276 20.0172L4.92937 17.7967C4.88633 17.6898 4.91351 17.5673 4.99777 17.4886L7.71321 14.9523C7.85648 14.8184 8.08943 14.8702 8.16261 15.052L9.056 17.2725Z" stroke="black" stroke-linejoin="round"/>
<path d="M40.4983 8.91C40.4383 9.01 40.3716 9.08667 40.2983 9.14C40.2316 9.18667 40.1483 9.21 40.0483 9.21C39.9349 9.21 39.8016 9.15333 39.6483 9.04C39.4949 8.92667 39.3016 8.80333 39.0683 8.67C38.8416 8.53 38.5649 8.40333 38.2383 8.29C37.9183 8.17667 37.5283 8.12 37.0683 8.12C36.6349 8.12 36.2516 8.18 35.9183 8.3C35.5916 8.41333 35.3149 8.57 35.0883 8.77C34.8683 8.97 34.7016 9.20667 34.5883 9.48C34.4749 9.74667 34.4183 10.0367 34.4183 10.35C34.4183 10.75 34.5149 11.0833 34.7083 11.35C34.9083 11.61 35.1683 11.8333 35.4883 12.02C35.8149 12.2067 36.1816 12.37 36.5883 12.51C37.0016 12.6433 37.4216 12.7833 37.8483 12.93C38.2816 13.0767 38.7016 13.2433 39.1083 13.43C39.5216 13.61 39.8883 13.84 40.2083 14.12C40.5349 14.4 40.7949 14.7433 40.9883 15.15C41.1883 15.5567 41.2883 16.0567 41.2883 16.65C41.2883 17.2767 41.1816 17.8667 40.9683 18.42C40.7549 18.9667 40.4416 19.4433 40.0283 19.85C39.6216 20.2567 39.1183 20.5767 38.5183 20.81C37.9249 21.0433 37.2483 21.16 36.4883 21.16C35.5549 21.16 34.7083 20.9933 33.9483 20.66C33.1883 20.32 32.5383 19.8633 31.9983 19.29L32.5583 18.37C32.6116 18.2967 32.6749 18.2367 32.7483 18.19C32.8283 18.1367 32.9149 18.11 33.0083 18.11C33.0949 18.11 33.1916 18.1467 33.2983 18.22C33.4116 18.2867 33.5383 18.3733 33.6783 18.48C33.8183 18.5867 33.9783 18.7033 34.1583 18.83C34.3383 18.9567 34.5416 19.0733 34.7683 19.18C35.0016 19.2867 35.2649 19.3767 35.5583 19.45C35.8516 19.5167 36.1816 19.55 36.5483 19.55C37.0083 19.55 37.4183 19.4867 37.7783 19.36C38.1383 19.2333 38.4416 19.0567 38.6883 18.83C38.9416 18.5967 39.1349 18.32 39.2683 18C39.4016 17.68 39.4683 17.3233 39.4683 16.93C39.4683 16.4967 39.3683 16.1433 39.1683 15.87C38.9749 15.59 38.7183 15.3567 38.3983 15.17C38.0783 14.9833 37.7116 14.8267 37.2983 14.7C36.8849 14.5667 36.4649 14.4333 36.0383 14.3C35.6116 14.16 35.1916 14 34.7783 13.82C34.3649 13.64 33.9983 13.4067 33.6783 13.12C33.3583 12.8333 33.0983 12.4767 32.8983 12.05C32.7049 11.6167 32.6083 11.0833 32.6083 10.45C32.6083 9.94333 32.7049 9.45333 32.8983 8.98C33.0983 8.50667 33.3849 8.08667 33.7583 7.72C34.1383 7.35333 34.6016 7.06 35.1483 6.84C35.7016 6.62 36.3349 6.51 37.0483 6.51C37.8483 6.51 38.5749 6.63667 39.2283 6.89C39.8883 7.14333 40.4683 7.51 40.9683 7.99L40.4983 8.91ZM59.0677 13.84C59.0677 14.9133 58.8977 15.9 58.5577 16.8C58.2177 17.6933 57.7377 18.4633 57.1177 19.11C56.4977 19.7567 55.751 20.26 54.8777 20.62C54.011 20.9733 53.051 21.15 51.9977 21.15C50.9443 21.15 49.9843 20.9733 49.1177 20.62C48.251 20.26 47.5077 19.7567 46.8877 19.11C46.2677 18.4633 45.7877 17.6933 45.4477 16.8C45.1077 15.9 44.9377 14.9133 44.9377 13.84C44.9377 12.7667 45.1077 11.7833 45.4477 10.89C45.7877 9.99 46.2677 9.21667 46.8877 8.57C47.5077 7.91667 48.251 7.41 49.1177 7.05C49.9843 6.69 50.9443 6.51 51.9977 6.51C53.051 6.51 54.011 6.69 54.8777 7.05C55.751 7.41 56.4977 7.91667 57.1177 8.57C57.7377 9.21667 58.2177 9.99 58.5577 10.89C58.8977 11.7833 59.0677 12.7667 59.0677 13.84ZM57.0777 13.84C57.0777 12.96 56.9577 12.17 56.7177 11.47C56.4777 10.77 56.1377 10.18 55.6977 9.7C55.2577 9.21333 54.7243 8.84 54.0977 8.58C53.471 8.32 52.771 8.19 51.9977 8.19C51.231 8.19 50.5343 8.32 49.9077 8.58C49.281 8.84 48.7443 9.21333 48.2977 9.7C47.8577 10.18 47.5177 10.77 47.2777 11.47C47.0377 12.17 46.9177 12.96 46.9177 13.84C46.9177 14.72 47.0377 15.51 47.2777 16.21C47.5177 16.9033 47.8577 17.4933 48.2977 17.98C48.7443 18.46 49.281 18.83 49.9077 19.09C50.5343 19.3433 51.231 19.47 51.9977 19.47C52.771 19.47 53.471 19.3433 54.0977 19.09C54.7243 18.83 55.2577 18.46 55.6977 17.98C56.1377 17.4933 56.4777 16.9033 56.7177 16.21C56.9577 15.51 57.0777 14.72 57.0777 13.84ZM65.5833 8.25V13.26H71.4733V14.84H65.5833V21H63.6433V6.67H72.4733V8.25H65.5833ZM86.4419 8.3H81.8019V21H79.8719V8.3H75.2219V6.67H86.4419V8.3ZM97.6397 8.91C97.5797 9.01 97.513 9.08667 97.4397 9.14C97.373 9.18667 97.2897 9.21 97.1897 9.21C97.0764 9.21 96.943 9.15333 96.7897 9.04C96.6364 8.92667 96.443 8.80333 96.2097 8.67C95.983 8.53 95.7064 8.40333 95.3797 8.29C95.0597 8.17667 94.6697 8.12 94.2097 8.12C93.7764 8.12 93.393 8.18 93.0597 8.3C92.733 8.41333 92.4564 8.57 92.2297 8.77C92.0097 8.97 91.843 9.20667 91.7297 9.48C91.6164 9.74667 91.5597 10.0367 91.5597 10.35C91.5597 10.75 91.6564 11.0833 91.8497 11.35C92.0497 11.61 92.3097 11.8333 92.6297 12.02C92.9564 12.2067 93.323 12.37 93.7297 12.51C94.143 12.6433 94.563 12.7833 94.9897 12.93C95.423 13.0767 95.843 13.2433 96.2497 13.43C96.663 13.61 97.0297 13.84 97.3497 14.12C97.6764 14.4 97.9364 14.7433 98.1297 15.15C98.3297 15.5567 98.4297 16.0567 98.4297 16.65C98.4297 17.2767 98.323 17.8667 98.1097 18.42C97.8964 18.9667 97.583 19.4433 97.1697 19.85C96.763 20.2567 96.2597 20.5767 95.6597 20.81C95.0664 21.0433 94.3897 21.16 93.6297 21.16C92.6964 21.16 91.8497 20.9933 91.0897 20.66C90.3297 20.32 89.6797 19.8633 89.1397 19.29L89.6997 18.37C89.753 18.2967 89.8164 18.2367 89.8897 18.19C89.9697 18.1367 90.0564 18.11 90.1497 18.11C90.2364 18.11 90.333 18.1467 90.4397 18.22C90.553 18.2867 90.6797 18.3733 90.8197 18.48C90.9597 18.5867 91.1197 18.7033 91.2997 18.83C91.4797 18.9567 91.683 19.0733 91.9097 19.18C92.143 19.2867 92.4064 19.3767 92.6997 19.45C92.993 19.5167 93.323 19.55 93.6897 19.55C94.1497 19.55 94.5597 19.4867 94.9197 19.36C95.2797 19.2333 95.583 19.0567 95.8297 18.83C96.083 18.5967 96.2764 18.32 96.4097 18C96.543 17.68 96.6097 17.3233 96.6097 16.93C96.6097 16.4967 96.5097 16.1433 96.3097 15.87C96.1164 15.59 95.8597 15.3567 95.5397 15.17C95.2197 14.9833 94.853 14.8267 94.4397 14.7C94.0264 14.5667 93.6064 14.4333 93.1797 14.3C92.753 14.16 92.333 14 91.9197 13.82C91.5064 13.64 91.1397 13.4067 90.8197 13.12C90.4997 12.8333 90.2397 12.4767 90.0397 12.05C89.8464 11.6167 89.7497 11.0833 89.7497 10.45C89.7497 9.94333 89.8464 9.45333 90.0397 8.98C90.2397 8.50667 90.5264 8.08667 90.8997 7.72C91.2797 7.35333 91.743 7.06 92.2897 6.84C92.843 6.62 93.4764 6.51 94.1897 6.51C94.9897 6.51 95.7164 6.63667 96.3697 6.89C97.0297 7.14333 97.6097 7.51 98.1097 7.99L97.6397 8.91ZM104.899 12.95H105.629C105.882 12.95 106.086 12.92 106.239 12.86C106.392 12.7933 106.532 12.6833 106.659 12.53L111.429 7.13C111.562 6.95667 111.702 6.83667 111.849 6.77C111.996 6.70333 112.176 6.67 112.389 6.67H114.029L108.569 12.84C108.436 13 108.306 13.1333 108.179 13.24C108.059 13.34 107.929 13.4233 107.789 13.49C107.969 13.55 108.132 13.64 108.279 13.76C108.426 13.8733 108.569 14.0233 108.709 14.21L114.409 21H112.729C112.602 21 112.492 20.9933 112.399 20.98C112.312 20.96 112.236 20.9333 112.169 20.9C112.102 20.86 112.042 20.8167 111.989 20.77C111.942 20.7167 111.896 20.6567 111.849 20.59L106.909 14.9C106.776 14.7333 106.632 14.6167 106.479 14.55C106.326 14.4767 106.092 14.44 105.779 14.44H104.899V21H102.969V6.67H104.899V12.95ZM123.391 15.29V21H121.451V15.29L116.201 6.67H117.901C118.075 6.67 118.211 6.71333 118.311 6.8C118.411 6.88 118.498 6.98667 118.571 7.12L121.851 12.69C121.971 12.9233 122.081 13.1433 122.181 13.35C122.281 13.55 122.368 13.7533 122.441 13.96C122.515 13.7533 122.598 13.55 122.691 13.35C122.785 13.1433 122.888 12.9233 123.001 12.69L126.271 7.12C126.331 7.00667 126.415 6.90333 126.521 6.81C126.628 6.71667 126.765 6.67 126.931 6.67H128.641L123.391 15.29Z" fill="black"/>
</svg>
